<svg height="512pt" viewBox="0 0 512 512.01667" width="512pt" xmlns="http://www.w3.org/2000/svg"><path d="m452.972656 95.464844c-130.132812 24.257812-263.648437 24.058594-393.710937-.582032-7.289063-1.386718-14.636719 2.09375-18.183594 8.613282-54.613281 100.800781-54.757813 203.089844-.441406 304.082031 3.507812 6.566406 10.882812 10.078125 18.191406 8.664063 130.132813-24.257813 263.648437-24.058594 393.710937.578124 1.058594.199219 2.136719.300782 3.214844.300782 6.25.011718 12.003906-3.410156 14.96875-8.910156 54.613282-100.804688 54.765625-203.09375.453125-304.085938-3.53125-6.542969-10.894531-10.046875-18.203125-8.660156zm2.75 304.570312h-.050781c-132.144531-25.046875-267.796875-25.238281-400.011719-.5625-51.445312-95.5625-51.273437-192.417968.4375-287.820312 132.140625 25.050781 267.796875 25.238281 400.007813.554687 51.421875 95.589844 51.285156 192.433594-.382813 287.828125zm0 0"/><path d="m133.757812 17.835938c1.964844-4.488282 1.226563-9.703126-1.902343-13.472657-2.371094-2.714843-8.0625-6.664062-20.273438-2.355469-16.234375 7.535157-31.402343 17.167969-45.125 28.65625-5.078125 3.242188-8.1875 8.820313-8.273437 14.847657-.085938 6.023437 2.863281 11.691406 7.847656 15.078125 13.925781 10.234375 28.929688 18.914062 44.746094 25.878906 3.292968 1.441406 6.832031 2.226562 10.421875 2.3125 3.925781.175781 7.742187-1.335938 10.484375-4.152344 3.644531-4.324218 4.1875-10.46875 1.359375-15.363281 40.816406-4.53125 81.839843-6.949219 122.90625-7.242187 41.054687.277343 82.070312 2.683593 122.878906 7.203124-2.832031 4.890626-2.289063 11.035157 1.355469 15.359376 2.730468 2.816406 6.542968 4.324218 10.464844 4.136718 3.671874-.09375 7.289062-.898437 10.65625-2.371094 15.679687-6.929687 30.5625-15.546874 44.375-25.703124 5.101562-3.523438 8.082031-9.382813 7.917968-15.582032-.242187-5.855468-3.308594-11.234375-8.226562-14.421875-13.914063-11.640625-29.324219-21.375-45.816406-28.9375-11.449219-4.007812-17.144532-.058593-19.515626 2.65625-3.128906 3.769531-3.863281 8.984375-1.902343 13.472657-40.585938-4.378907-81.367188-6.71875-122.1875-7.011719-40.824219.292969-81.601563 2.632812-122.191407 7.011719zm-57.734374 28.902343c-.488282-.339843-.742188-.714843-.726563-1.046875.015625-.335937.367187-.667968.65625-.855468.382813-.230469.75-.492188 1.09375-.777344 11.488281-9.679688 24.09375-17.953125 37.546875-24.632813-.691406 1.933594-1.289062 3.914063-1.808594 5.972657-.070312.222656-.085937.453124-.144531.683593-2.882813 12.082031-2.859375 24.679688.074219 36.75v.308594c.136718 1.015625.453125 2 .941406 2.902344.339844 1.167969.65625 2.34375 1.054688 3.488281-13.636719-6.261719-26.601563-13.898438-38.6875-22.792969zm52.050781 5.871094c-.753907-5.640625-.726563-11.355469.085937-16.988281 42.429688-4.820313 85.085938-7.402344 127.789063-7.730469 42.699219.332031 85.355469 2.910156 127.785156 7.730469.8125 5.632812.84375 11.347656.085937 16.988281-42.460937-4.804687-85.144531-7.359375-127.871093-7.652344-42.730469.292969-85.414063 2.847657-127.875 7.652344zm306.773437-8.53125c.347656.285156.710938.542969 1.09375.773437.289063.179688.648438.480469.664063.855469.019531.375-.246094.707031-.851563 1.144531-12.019531 8.839844-24.90625 16.433594-38.46875 22.65625.402344-1.136718.71875-2.324218 1.066406-3.492187.679688-1.214844 1.054688-2.582031 1.085938-3.976563 2.746094-11.851562 2.695312-24.183593-.15625-36.011718-.050781-.21875-.074219-.441406-.144531-.65625-.511719-1.988282-1.101563-3.949219-1.78125-5.851563 13.4375 6.644531 26.027343 14.886719 37.492187 24.546875zm-40.753906-32.128906c.050781.214843.070312.4375.050781.65625l-7.414062 3.765625zm0 0"/><path d="m131.683594 427.394531c-2.082032-2.261719-8.292969-6.988281-21.117188-1.757812-15.679687 6.933593-30.558594 15.550781-44.375 25.703125-5.101562 3.519531-8.082031 9.382812-7.917968 15.582031.242187 5.851563 3.304687 11.226563 8.21875 14.421875 13.929687 11.644531 29.347656 21.378906 45.847656 28.953125 2.863281 1.0625 5.886718 1.640625 8.945312 1.707031 3.996094.183594 7.871094-1.417968 10.570313-4.371094 3.128906-3.769531 3.867187-8.984374 1.902343-13.472656 40.585938 4.382813 81.367188 6.726563 122.191407 7.023438 40.820312-.296875 81.601562-2.636719 122.1875-7.015625-1.960938 4.488281-1.226563 9.703125 1.902343 13.472656 2.675782 2.917969 6.519532 4.484375 10.472657 4.269531 3.351562-.082031 6.667969-.726562 9.804687-1.914062 16.230469-7.527344 31.398438-17.160156 45.113282-28.652344 4.921874-3.191406 7.988281-8.566406 8.226562-14.421875.175781-6.144531-2.75-11.964844-7.78125-15.488281-13.929688-10.238282-28.9375-18.917969-44.757812-25.882813-12.605469-5.121093-18.824219-.417969-20.90625 1.851563-3.652344 4.320312-4.195313 10.46875-1.359376 15.359375-40.804687 4.519531-81.820312 6.925781-122.878906 7.203125-41.054687-.277344-82.070312-2.683594-122.878906-7.203125 2.816406-4.90625 2.253906-11.054688-1.410156-15.367188zm-54.613282 40.542969c-.34375-.285156-.707031-.546875-1.089843-.777344-.289063-.179687-.648438-.476562-.65625-.855468-.011719-.375.238281-.707032.851562-1.140626 12.019531-8.84375 24.914063-16.433593 38.476563-22.65625-.707032 1.96875-1.320313 4-1.851563 6.066407 0 .109375-.085937.195312-.101562.308593-.015625.109376 0 .082032 0 .136719-2.96875 12.136719-2.988281 24.808594-.050781 36.957031.039062.226563.089843.453126.152343.671876.503907 1.988281 1.09375 3.945312 1.773438 5.847656-13.449219-6.648438-26.050781-14.894532-37.527344-24.558594zm40.730469 32.117188c-.050781-.214844-.066406-.4375-.050781-.65625l7.414062-3.761719zm318.074219-34.824219c.398438.210937.667969.601562.730469 1.050781 0 .367188-.375.664062-.664063.851562-.382812.234376-.746094.492188-1.09375.777344-11.484375 9.679688-24.089844 17.949219-37.546875 24.628906.683594-1.929687 1.289063-3.910156 1.800781-5.921874.078126-.230469.09375-.460938.15625-.703126 2.804688-11.777343 2.84375-24.042968.117188-35.839843v-.125c-.023438-1.386719-.410156-2.742188-1.117188-3.933594-.347656-1.1875-.664062-2.390625-1.074218-3.550781 13.640625 6.261718 26.601562 13.902344 38.691406 22.800781zm-52.054688-5.878907c.757813 5.644532.726563 11.363282-.085937 17-42.429687 4.828126-85.085937 7.421876-127.785156 7.765626-42.703125-.335938-85.359375-2.914063-127.789063-7.734376-.8125-5.632812-.839844-11.347656-.085937-16.988281 42.460937 4.8125 85.144531 7.375 127.875 7.679688 42.730469-.296875 85.414062-2.863281 127.871093-7.6875zm0 0"/><path d="m172.320312 204.957031c-2.222656-.429687-4.523437.042969-6.398437 1.3125-1.871094 1.269531-3.164063 3.230469-3.59375 5.453125l-14.507813 75.640625-13.164062-72.320312c-.246094-1.386719-.832031-2.695313-1.707031-3.796875-3.339844-3.882813-8.203125-6.113282-13.320313-6.113282-5.121094 0-9.984375 2.230469-13.320312 6.113282-.875 1.101562-1.464844 2.410156-1.707032 3.796875l-13.152343 72.191406-14.503907-75.476563c-.578124-2.996093-2.707031-5.453124-5.585937-6.453124-2.882813-.996094-6.078125-.382813-8.382813 1.613281-2.304687 1.996093-3.367187 5.070312-2.792968 8.066406l14.765625 76.859375c.699219 6.886719 5.496093 12.671875 12.136719 14.636719 6.640624 1.964843 13.808593-.277344 18.144531-5.679688.878906-1.101562 1.464843-2.40625 1.707031-3.796875l12.640625-69.367187 12.636719 69.324219c.246094 1.390624.832031 2.695312 1.707031 3.796874 4.3125 5.433594 11.496094 7.691407 18.140625 5.710938 6.433594-1.804688 11.167969-7.273438 12.03125-13.902344l15.054688-77.617187c.425781-2.230469-.054688-4.542969-1.335938-6.417969s-3.257812-3.160156-5.492188-3.574219zm0 0"/><path d="m255.949219 221.867188c4.710937 0 8.53125-3.820313 8.53125-8.53125 0-4.714844-3.820313-8.535157-8.53125-8.535157h-51.132813c-4.714844 0-8.535156 3.820313-8.535156 8.535157 0 4.710937 3.820312 8.53125 8.535156 8.53125h17.066406v68.269531h-17.066406c-4.714844 0-8.535156 3.820312-8.535156 8.53125 0 4.714843 3.820312 8.535156 8.535156 8.535156h51.132813c4.710937 0 8.53125-3.820313 8.53125-8.535156 0-4.710938-3.820313-8.53125-8.53125-8.53125h-17.066407v-68.269531zm0 0"/><path d="m315.597656 204.800781h-17.070312c-9.425782 0-17.066406 7.640625-17.066406 17.066407v68.269531c0 9.425781 7.640624 17.066406 17.066406 17.066406h17.070312c28.273438 0 51.199219-22.925781 51.199219-51.199219 0-28.277344-22.925781-51.203125-51.199219-51.203125zm0 85.335938h-17.070312v-68.269531h17.070312c18.847656 0 34.132813 15.285156 34.132813 34.136718 0 18.851563-15.285157 34.132813-34.132813 34.132813zm0 0"/><path d="m400.816406 204.800781c-9.425781 0-17.066406 7.640625-17.066406 17.066407v68.269531c0 9.425781 7.640625 17.066406 17.066406 17.066406h51.132813c4.714843 0 8.535156-3.820313 8.535156-8.535156 0-4.710938-3.820313-8.53125-8.535156-8.53125h-51.121094v-25.601563h51.128906c4.714844 0 8.535157-3.820312 8.535157-8.53125 0-4.714844-3.820313-8.535156-8.535157-8.535156h-51.140625v-25.601562h51.132813c4.714843 0 8.535156-3.820313 8.535156-8.53125 0-4.714844-3.820313-8.535157-8.535156-8.535157zm0 0"/></svg>